<svg width="80" height="101" viewBox="0 0 80 101" fill="none" xmlns="http://www.w3.org/2000/svg">
<path d="M14.6972 38.4091C15.4982 37.8811 15.8911 37.6227 17.0135 37.0774C17.4577 36.8616 18.3996 36.616 18.7952 36.5362C19.6046 36.3728 19.6861 36.3856 20.7551 36.3856C21.2821 36.3983 21.646 36.3856 22.3587 36.3856L25.0313 36.5362L25.3007 35.7239L25.5658 34.9124L26.0134 34.1001L26.1915 33.7392L26.6348 33.1082C28.1188 30.9903 28.8415 30.5628 29.4856 30.041C29.3987 29.7699 27.7039 28.4172 24.8531 27.6955C23.2495 27.3347 21.6915 27.0777 19.7773 27.0636C17.9209 27.05 14.9666 27.4245 13.7194 27.7853C12.4722 28.1461 11.5813 28.3266 10.1559 29.2287L9.08686 29.8606L7.83965 30.8525L7.03786 31.4839L6.23608 32.1154L5.61247 32.7469L4.98887 33.3784L3.74165 35.0022L3.02895 36.0847L2.13808 37.7085L1.60356 39.1519C1.60356 39.1519 1.28519 40.2149 1.06904 40.7757C0.932808 41.1291 0.799645 41.6012 0.799645 41.6012L0.621471 42.219L0.443297 43.0466L0.178174 44.8356L0 46.0079V47.2708V48.1729L0.0890869 48.8044L0.178174 49.4359L0.621471 51.5112L1.10644 53.6762L2.31626 56.8332L2.85078 57.9157L3.20713 58.6374L3.74165 59.3591L4.27617 60.0808L6.59243 63.1479L9.26503 66.0347L15.2317 71.6049L20.3988 76.5898L24.4967 80.559L30.1983 73.8835C28.509 72.0873 25.9543 69.275 22.5368 66.1253C21.2254 64.9167 20.2206 63.7798 18.7952 62.5169C17.7534 61.4779 16.1512 60.1239 15.2317 59.0889C14.583 58.3586 13.8223 57.6345 13.2718 56.9238C12.7971 56.3109 12.2266 55.7079 11.8464 55.1196C11.4958 54.577 11.169 54.1174 10.9555 53.6762C10.5035 52.7417 10.3721 52.1415 10.2429 51.3308C10.1245 50.5886 9.88651 49.7896 9.8865 48.8049V46.8202C9.9647 46.1754 10.0976 45.5058 10.3069 44.8356C10.4964 44.2287 10.7342 43.6213 11.0108 43.0314C11.435 42.1265 11.9503 41.2629 12.5217 40.5055C12.8177 40.1131 13.1287 39.7492 13.45 39.4229C13.8336 39.0332 14.2453 38.707 14.6972 38.4091Z" fill="white"/>
<path d="M57.7283 65.1326C49.9211 73.8366 38.4855 82.453 36.5256 86.2419C34.5657 90.0307 35.2784 88.5874 34.5657 90.0307C34.3249 90.5184 34.1655 91.1297 34.0599 91.7254C33.9077 92.5841 32.8145 93.0399 32.1741 92.4478L29.9081 90.3527C29.8071 90.2593 29.7265 90.1462 29.6712 90.0203L29.0821 88.6781C29.0557 88.6178 29.0352 88.5549 29.0211 88.4906L28.7092 87.0695C28.6938 86.9991 28.686 86.9272 28.686 86.8551V84.4377L28.8485 82.7916C28.8589 82.6868 28.8857 82.5843 28.928 82.4879L29.5768 81.0097L30.255 79.6362C30.278 79.5897 30.3046 79.545 30.3345 79.5025L31.1328 78.3708C31.1645 78.3259 31.1998 78.2837 31.2384 78.2446L35.8129 73.6124L38.3074 71.2669L40.8018 68.741L45.7906 63.8696L49.7105 60.0807L51.4922 58.0961L52.5613 56.8332L53.3901 55.826C53.4314 55.7759 53.4676 55.7219 53.4984 55.6647L54.4793 53.8437C54.5072 53.792 54.5304 53.7379 54.5488 53.6821L55.2339 51.6009L55.5746 50.0484C55.585 50.001 55.5919 49.9528 55.5953 49.9044L55.763 47.5275C55.7666 47.4767 55.7663 47.4258 55.7621 47.3751L55.601 45.4178C55.5938 45.3304 55.5752 45.2444 55.5456 45.1619L54.8775 43.3015L54.343 42.219L53.8693 41.2596C53.8289 41.1779 53.7776 41.1021 53.7167 41.0343L52.0862 39.218C52.0466 39.174 52.0032 39.1336 51.9565 39.0972L49.8333 37.4433C49.7519 37.3799 49.6612 37.3295 49.5643 37.2938L47.8804 36.6738C47.7943 36.642 47.7041 36.6223 47.6126 36.6152L45.4343 36.4455H42.9259C42.8172 36.4455 42.7091 36.4633 42.6061 36.498L40.0891 37.3476C40.0891 37.3476 38.4653 38.0744 37.5947 38.791C36.792 39.4517 36.4398 39.9425 35.8129 40.7756C35.3568 41.3819 35.1515 41.7587 34.7439 42.3994C34.3884 42.9582 34.1215 43.2363 33.853 43.8428C33.4733 44.7006 33.4593 45.2591 33.3185 46.1883C33.2979 46.3239 33.2791 46.4733 33.262 46.6275C33.1819 47.3497 32.4089 47.7904 31.8065 47.3842C31.5794 47.231 31.3595 47.0687 31.1804 46.91C30.4363 46.2504 30.0873 45.783 29.5768 44.9253C29.2957 44.4531 28.9532 43.6624 28.9532 43.6624C28.9532 43.6624 28.5153 42.9178 28.3296 42.3994C28.0176 41.5282 27.9254 40.9794 27.9733 40.054C28.0183 39.1836 28.175 38.6926 28.5078 37.8889C28.8216 37.1311 29.115 36.7603 29.5768 36.0847C30.3071 35.0165 30.8195 34.4892 31.7149 33.5588C32.5055 32.7373 32.9671 32.2889 33.853 31.5741C34.7135 30.8799 35.2301 30.5306 36.1693 29.9503C37.0463 29.4085 37.5362 29.085 38.4855 28.6874C39.3601 28.3211 39.8894 28.2204 40.8018 27.9657C41.9733 27.6387 42.6225 27.3751 43.8307 27.244C44.8685 27.1314 45.4609 27.1921 46.5033 27.244C48.469 27.3419 49.589 27.4585 51.4922 27.9657C52.5562 28.2492 54.1648 28.8678 54.1648 28.8678C54.1648 28.8678 55.4985 29.4706 56.3029 29.9503C57.3344 30.5655 57.8871 30.9672 58.7973 31.7546C59.6203 32.4665 60.0397 32.9186 60.7572 33.7392C61.3479 34.4148 61.6763 34.8009 62.1826 35.5434C62.7319 36.3489 63.0107 36.8264 63.4298 37.7085C63.6596 38.192 63.7405 38.4851 63.9644 38.9714C64.1615 39.3998 64.3149 39.6196 64.4989 40.054C64.8983 40.9968 65.0334 41.497 65.2116 42.5799C65.3898 43.6627 65.3511 43.8974 65.3898 44.7449C65.4379 45.8007 65.3898 46.3944 65.3898 47.4512C65.3898 48.4377 65.4585 48.9932 65.3898 49.9771C65.3204 50.9711 65.2295 51.5266 65.0334 52.503C64.6695 54.3154 64.3656 55.3307 63.608 57.0136C63.1819 57.9602 62.9101 58.4799 62.3608 59.3591C61.8548 60.1689 61.5132 60.5846 60.9354 61.3437C60.3317 62.1369 59.9764 62.5689 59.3319 63.3283C58.7217 64.0473 58.3577 64.4309 57.7283 65.1326Z" fill="white"/>
<path d="M35.6347 68.0193C35.7091 68.6219 36.4345 68.8872 36.8801 68.4747L41.5469 64.154C41.8496 63.8738 41.9492 63.4365 41.7976 63.0528L41.7306 62.8832C41.7054 62.8193 41.6736 62.7581 41.6358 62.7007L40.98 61.7046L39.02 59.1786L35.2501 55.356L33.853 53.9464L32.2494 52.503L30.1114 50.5184L29.2205 49.6163L28.1232 48.5L25.8989 46.2526C25.8565 46.2098 25.8181 46.1633 25.7841 46.1136L24.3729 44.0494C24.2801 43.9138 24.2223 43.7574 24.2043 43.5941L24.0643 42.3182C24.0571 42.2522 24.0564 42.1857 24.0624 42.1197L24.1225 41.4496C24.175 40.865 23.6234 40.4103 23.0596 40.5735V40.5735C23.0096 40.5879 22.961 40.6071 22.9146 40.6306L22.3526 40.9151C22.2988 40.9424 22.2475 40.9744 22.1995 41.0109L21.6521 41.4266C21.5903 41.4736 21.5341 41.5276 21.4848 41.5876L20.7604 42.4678C20.6992 42.5421 20.6491 42.6249 20.6116 42.7135L20.1336 43.8428L19.8149 44.9726C19.7899 45.061 19.7773 45.1523 19.7773 45.2441V46.3687V47.6737C19.7773 47.7655 19.7899 47.8569 19.8149 47.9453L20.1336 49.075L20.6263 50.2391C20.6541 50.3048 20.6889 50.3674 20.7301 50.4257L21.559 51.6009L22.2717 52.6835L23.3408 53.9464L24.588 55.3898L25.8352 56.6527L27.0824 57.9157L28.5078 59.1786L29.1638 59.6769C29.2015 59.7055 29.2372 59.7368 29.2705 59.7706L29.755 60.2612L30.2895 60.8024L30.8241 61.3437L31.5368 62.0654L32.6058 63.1479L33.1403 63.6892L33.9618 64.521C34.0079 64.5678 34.0494 64.6189 34.0855 64.6738L34.3875 65.1326L34.9221 66.0347L35.4257 67.2246C35.4462 67.2732 35.4629 67.3234 35.4756 67.3746L35.6347 68.0193V68.0193Z" fill="white"/>
<g filter="url(#filter0_d_0_3)">
<path d="M35.9911 34.6413C35.5635 34.93 33.3185 36.9868 32.6058 38.0693C31.8931 39.1519 32.2495 38.6106 32.0713 38.9714C31.8931 39.3323 31.8216 39.5775 31.7149 39.8735C31.6166 40.1465 31.6063 40.3134 31.5368 40.5952C31.4672 40.8771 31.4001 41.0295 31.3586 41.3169C31.2981 41.7352 31.3586 41.9767 31.3586 42.3994C31.3586 42.8222 31.3244 43.0606 31.3586 43.482C31.3933 43.9091 31.5368 44.5645 31.5368 44.5645L31.7149 45.2862L31.8931 45.8275L32.0713 46.3687L32.6058 47.4512L33.1403 44.9253C33.1403 44.9253 33.6304 43.6891 34.0312 42.9407C34.907 41.3055 35.9774 40.0369 36.882 39.3323C37.7865 38.6277 38.6637 38.0693 39.5546 37.5281C40.4454 36.9868 42.049 36.626 44.0089 36.4455C45.9688 36.2651 46.5034 36.4455 46.8597 36.4455C47.216 36.4455 48.0149 36.5332 48.9978 36.9868C50.2641 37.5712 50.9866 37.8548 52.0267 38.791C52.7622 39.453 53.1542 39.8509 53.8085 40.5952C54.4009 41.2692 54.8032 41.6095 55.2339 42.3994C55.6274 43.1215 55.7732 43.5783 55.9466 44.3841C56.0806 45.0075 56.085 45.3711 56.1247 46.0079C56.2169 47.4862 56.6593 50.338 56.6593 50.338L56.1247 53.9464L54.8775 57.9157C54.8775 57.9157 53.9451 59.3676 53.274 60.622C52.4716 62.1217 51.7965 62.6903 50.7795 64.05C49.9981 65.0948 49.4449 65.7289 48.6414 66.7564C46.1368 69.9592 44.2608 71.3393 41.3363 74.1536C40.3014 75.1496 39.7023 75.6876 38.6637 76.6795C36.9095 78.3549 35.5905 79.0081 34.2094 81.0097C33.5668 81.941 33.1451 82.4599 32.784 83.5356C32.5775 84.1506 32.5605 84.5238 32.4276 85.1594C32.2807 85.8623 32.1328 86.2477 32.0713 86.9636L32.0663 87.0219C32.0209 87.5482 31.9933 87.8688 32.0713 88.4069C32.1448 88.9145 32.2961 89.1745 32.4276 89.6699C32.5766 90.231 32.5788 90.5707 32.784 91.1133C32.9508 91.5547 33.3185 92.1958 33.3185 92.1958C33.3185 92.1958 34.8925 87.9014 36.5256 85.5202C37.5115 84.0827 38.2254 83.3978 39.3764 82.0922C43.0486 77.9269 45.787 76.2727 49.7105 72.3494C50.5507 71.5093 51.0136 71.0299 51.8486 70.1844C52.8227 69.1979 53.4193 68.6934 54.343 67.6585C55.3048 66.5808 56.6593 64.7717 56.6593 64.7717L58.0846 62.4262C58.0846 62.4262 58.9115 61.03 59.3319 60.0808C59.9843 58.6072 60.1991 57.7059 60.5709 56.1457L60.5791 56.1115C60.9924 54.3774 61.1028 53.3745 61.2918 51.6009C61.3816 50.7574 61.4646 50.2843 61.4699 49.4359C61.4757 48.5172 61.2918 46.7296 61.2918 46.7296C61.1136 45.8275 60.5791 43.6624 60.5791 43.6624C60.5791 43.6624 58.8861 39.6958 58.7973 39.5127C58.6561 39.2213 57.7778 37.6243 56.6593 36.2651C55.5934 34.97 54.2894 33.9073 53.9866 33.7392C53.6839 33.5711 52.9176 33.0175 51.6704 32.4763C50.8676 32.1279 49.6849 31.7288 48.9978 31.5741L47.9287 31.3937H46.8597H44.7216L42.9399 31.5741L41.1581 31.935C38.4855 33.0175 36.4187 34.3526 35.9911 34.6413Z" fill="url(#paint0_linear_0_3)"/>
</g>
<path d="M12.6503 56.8332L20.3118 64.7717L24.9443 69.2823L28.3296 72.8907L29.3987 73.9732L26.9042 76.6795L22.4499 72.5299L17.9955 68.0193L13.5412 63.5088L9.4432 58.9982L8.01781 57.2949L6.94877 55.5702L6.0579 53.766L5.3452 51.7814L4.98886 49.6163V47.8121L5.16703 46.0079L5.3452 44.2037L5.87972 42.3994L6.23607 41.3169L6.77059 40.4148L7.30511 39.5127L8.01781 38.4302L9.26503 36.9868L11.0468 35.363L12.6503 34.2805L14.2539 33.3784L16.2138 32.6567L17.9955 32.1154L20.3118 31.935L22.8062 32.1154L26.1915 32.8371L25.1225 34.4609L24.588 36.2651L22.8062 36.0847H21.2027H19.2428L17.8174 36.4455L16.9265 36.8064L16.2138 37.1672L15.1448 37.7085L14.2539 38.2497L13.363 38.9714L12.1158 40.4148L10.8686 42.5799L9.97772 44.7449L9.62137 46.0079V47.4512V50.1576L9.79955 51.0597L9.97772 51.9618L10.6904 53.766L12.6503 56.8332Z" fill="url(#paint1_linear_0_3)"/>
<path d="M22.9844 47.2708C23.7565 48.5338 25.6926 50.4102 25.8352 50.6988C26.0134 51.0597 29.9332 55.5702 32.2494 57.194C33.4373 58.7577 35.8129 61.3437 35.9911 61.7046C36.1065 61.9382 36.4206 63.5975 36.5256 65.313C36.5636 65.9345 36.4301 66.6181 36.3143 67.2384L36.1693 68.5606L35.6347 66.3955L34.7439 64.5913L31.8931 61.7046C30.9428 60.9227 29.2917 59.2869 28.8641 58.9982C28.4365 58.7096 25.36 55.6304 24.0534 54.1268L22.0935 51.7814L21.2027 50.338L20.3118 48.5338L20.1336 47.0904V45.647L20.49 44.2037L21.2027 42.9407L22.628 41.6778V44.5645V46.0079L22.9844 47.2708Z" fill="url(#paint2_linear_0_3)"/>
<path d="M36.1693 68.5606L35.6347 66.3955L34.7439 64.5913L31.8931 61.7046C30.9428 60.9227 29.2917 59.2869 28.8641 58.9982C28.4365 58.7096 25.36 55.6304 24.0534 54.1268L22.0935 51.7814L21.2027 50.338L20.3118 48.5338L20.1336 47.0904V45.647L20.49 44.2037L21.2027 42.9407L22.628 41.6778V44.5645V46.0079L22.9844 47.2708C23.7565 48.5338 25.6926 50.4102 25.8352 50.6988C26.0134 51.0597 29.9332 55.5702 32.2494 57.194C33.4373 58.7577 35.8129 61.3437 35.9911 61.7046C36.1065 61.9382 36.4206 63.5975 36.5256 65.313M36.1693 68.5606C36.0986 67.7733 36.5946 66.4408 36.5256 65.313M36.1693 68.5606L36.5256 65.313" stroke="white"/>
<path d="M50.9577 73.4316V72.1686V71.8078L52.0267 70.7253V77.4009V79.2051V80.8289V81.9114V82.6331V83.7156L52.5613 84.4373L51.4922 86.422L50.4232 84.4373L50.9577 83.7156V82.9939V81.9114V80.468V79.5659V78.1226V76.3183V74.875V73.4316Z" fill="url(#paint3_linear_0_3)"/>
<path d="M48.8374 42.7239L50.0668 39.6928L51.2962 42.7239L54.1648 44.0229L51.2962 45.3219L50.0668 48.353L48.8374 45.3219L45.9688 44.0229L48.8374 42.7239Z" fill="url(#paint4_linear_0_3)"/>
<path d="M66.5798 19.4846C66.3871 19.9571 66.281 20.4719 66.281 21.0109C66.2811 23.3026 68.1949 25.1602 70.5564 25.1604C71.5124 25.1604 72.3951 24.8555 73.1072 24.341C72.4805 25.8774 70.9377 26.965 69.1316 26.965C66.7699 26.965 64.8552 25.1065 64.8552 22.8147C64.8554 21.451 65.5332 20.2409 66.5798 19.4846Z" fill="url(#paint5_linear_0_3)"/>
<path d="M49.8886 2.88675L50.9577 3.60843V15.7869V27.9653L51.8486 28.1458L52.5612 28.3262V27.6045V26.8828V26.1611V3.60843L53.4521 2.88675L51.6704 0L49.8886 2.88675Z" fill="url(#paint6_linear_0_3)"/>
<path d="M71.6258 42.5795H68.5969H68.2405H67.706H66.9933H65.2116V43.3012V44.0229H65.5679H66.1025H66.8151H67.706H68.0624H68.5969H70.5568H71.4477H72.1604H73.2294H73.7639H74.6548H75.3675H76.2584H77.3274L78.5746 43.8424L79.4655 43.662L79.8218 43.4816L80 43.3012V43.1208L79.6437 42.9403L79.1091 42.7599L77.8619 42.5795H76.4365H75.0111H73.4076H71.6258Z" fill="url(#paint7_linear_0_3)"/>
<path d="M52.027 25.259C61.8671 25.2592 69.8443 33.3368 69.8444 43.301C69.8444 48.8732 67.3484 53.8538 63.4284 57.1633C64.0828 55.8181 64.6017 54.3895 64.9636 52.8958C66.9111 50.2075 68.0622 46.8906 68.0622 43.301C68.0621 34.3332 60.8831 27.0639 52.027 27.0637C51.6678 27.0637 51.3111 27.0763 50.9577 27.0999V25.2922C51.3114 25.271 51.6681 25.259 52.027 25.259Z" fill="url(#paint8_linear_0_3)"/>
<defs>
<filter id="filter0_d_0_3" x="27.3317" y="31.3937" width="38.1384" height="68.8021" filterUnits="userSpaceOnUse" color-interpolation-filters="sRGB">
<feFlood flood-opacity="0" result="BackgroundImageFix"/>
<feColorMatrix in="SourceAlpha" type="matrix" values="0 0 0 0 0 0 0 0 0 0 0 0 0 0 0 0 0 0 127 0" result="hardAlpha"/>
<feOffset dy="4"/>
<feGaussianBlur stdDeviation="2"/>
<feComposite in2="hardAlpha" operator="out"/>
<feColorMatrix type="matrix" values="0 0 0 0 0 0 0 0 0 0 0 0 0 0 0 0 0 0 0.25 0"/>
<feBlend mode="normal" in2="BackgroundImageFix" result="effect1_dropShadow_0_3"/>
<feBlend mode="normal" in="SourceGraphic" in2="effect1_dropShadow_0_3" result="shape"/>
</filter>
<linearGradient id="paint0_linear_0_3" x1="46.4009" y1="31.3937" x2="46.4009" y2="92.1958" gradientUnits="userSpaceOnUse">
<stop stop-color="#F4F4F4"/>
<stop offset="1" stop-color="#737373"/>
</linearGradient>
<linearGradient id="paint1_linear_0_3" x1="17.1938" y1="31.935" x2="17.1938" y2="76.6795" gradientUnits="userSpaceOnUse">
<stop stop-color="#F1F1F1"/>
<stop offset="1" stop-color="#737373"/>
</linearGradient>
<linearGradient id="paint2_linear_0_3" x1="28.3329" y1="41.6778" x2="28.3329" y2="68.5606" gradientUnits="userSpaceOnUse">
<stop stop-color="white"/>
<stop offset="1" stop-color="#737373"/>
</linearGradient>
<linearGradient id="paint3_linear_0_3" x1="51.4922" y1="70.7253" x2="51.4922" y2="86.422" gradientUnits="userSpaceOnUse">
<stop stop-color="white"/>
<stop offset="1" stop-color="#999999"/>
</linearGradient>
<linearGradient id="paint4_linear_0_3" x1="50.0668" y1="39.6928" x2="50.0668" y2="48.353" gradientUnits="userSpaceOnUse">
<stop stop-color="white"/>
<stop offset="1" stop-color="#999999"/>
</linearGradient>
<linearGradient id="paint5_linear_0_3" x1="69.1302" y1="18.6643" x2="69.1302" y2="26.965" gradientUnits="userSpaceOnUse">
<stop stop-color="white"/>
<stop offset="1" stop-color="#999999"/>
</linearGradient>
<linearGradient id="paint6_linear_0_3" x1="64.9443" y1="0" x2="64.9443" y2="57.0132" gradientUnits="userSpaceOnUse">
<stop stop-color="white"/>
<stop offset="1" stop-color="#999999"/>
</linearGradient>
<linearGradient id="paint7_linear_0_3" x1="64.9443" y1="0" x2="64.9443" y2="57.0132" gradientUnits="userSpaceOnUse">
<stop stop-color="white"/>
<stop offset="1" stop-color="#999999"/>
</linearGradient>
<linearGradient id="paint8_linear_0_3" x1="60.4011" y1="25.259" x2="60.4011" y2="57.1633" gradientUnits="userSpaceOnUse">
<stop stop-color="#D9D9D9"/>
<stop offset="1" stop-color="#737373"/>
</linearGradient>
</defs>
</svg>
