<svg width="88" height="101" viewBox="0 0 88 101" fill="none" xmlns="http://www.w3.org/2000/svg">
<g filter="url(#filter0_d_1_2)">
<path d="M18.6972 38.4091C19.4982 37.8812 19.8911 37.6228 21.0135 37.0775C21.4577 36.8616 22.3996 36.6161 22.7952 36.5362C23.6046 36.3728 23.6861 36.3857 24.7551 36.3857C25.2821 36.3984 25.646 36.3857 26.3587 36.3857L29.0313 36.5362L29.3007 35.7239L29.5658 34.9124L30.0134 34.1001L30.1915 33.7392L30.6348 33.1082C32.1188 30.9904 32.8415 30.5629 33.4856 30.041C33.3987 29.77 31.7039 28.4173 28.8531 27.6956C27.2495 27.3347 25.6915 27.0777 23.7773 27.0636C21.9209 27.05 18.9666 27.4245 17.7194 27.7853C16.4722 28.1462 15.5813 28.3266 14.1559 29.2287L13.0869 29.8606L11.8396 30.8525L11.0379 31.484L10.2361 32.1155L9.61247 32.7469L8.98887 33.3784L7.74165 35.0022L7.02895 36.0847L6.13808 37.7085L5.60356 39.1519C5.60356 39.1519 5.28519 40.2149 5.06904 40.7757C4.93281 41.1292 4.79964 41.6013 4.79964 41.6013L4.62147 42.2191L4.4433 43.0467L4.17817 44.8356L4 46.0079V47.2709V48.173L4.08909 48.8044L4.17817 49.4359L4.62147 51.5112L5.10644 53.6763L6.31626 56.8332L6.85078 57.9157L7.20713 58.6374L7.74165 59.3591L8.27617 60.0808L10.5924 63.148L13.265 66.0347L19.2317 71.6049L24.3988 76.5898L28.4967 80.5591L34.1983 73.8835C32.509 72.0873 29.9543 69.275 26.5368 66.1254C25.2254 64.9167 24.2206 63.7799 22.7952 62.5169C21.7534 61.4779 20.1512 60.1239 19.2317 59.0889C18.583 58.3587 17.8223 57.6346 17.2718 56.9239C16.7971 56.3109 16.2266 55.708 15.8464 55.1196C15.4958 54.5771 15.169 54.1175 14.9555 53.6763C14.5035 52.7417 14.3721 52.1415 14.2429 51.3308C14.1245 50.5887 13.8865 49.7896 13.8865 48.8049V46.8202C13.9647 46.1755 14.0976 45.5058 14.3069 44.8356C14.4964 44.2287 14.7342 43.6213 15.0108 43.0314C15.435 42.1265 15.9503 41.2629 16.5217 40.5055C16.8177 40.1131 17.1287 39.7493 17.45 39.423C17.8336 39.0332 18.2453 38.707 18.6972 38.4091Z" fill="#339ABC"/>
<path d="M61.7283 65.1326C53.9211 73.8367 42.4855 82.4531 40.5256 86.2419C38.5657 90.0308 39.2784 88.5874 38.5657 90.0308C38.3249 90.5185 38.1654 91.1297 38.0598 91.7254C37.9077 92.5842 36.8145 93.0399 36.1741 92.4478L33.908 90.3527C33.8071 90.2594 33.7265 90.1462 33.6712 90.0203L33.0821 88.6781C33.0556 88.6178 33.0352 88.555 33.021 88.4906L32.7092 87.0695C32.6937 86.9991 32.6859 86.9272 32.6859 86.8552V84.4377L32.8485 82.7916C32.8588 82.6868 32.8857 82.5844 32.928 82.488L33.5768 81.0097L34.255 79.6363C34.278 79.5897 34.3045 79.545 34.3345 79.5026L35.1328 78.3708C35.1644 78.3259 35.1998 78.2837 35.2384 78.2446L39.8129 73.6124L42.3073 71.2669L44.8017 68.741L49.7906 63.8696L53.7104 60.0808L55.4922 58.0961L56.5612 56.8332L57.3901 55.826C57.4313 55.7759 57.4676 55.7219 57.4983 55.6648L58.4793 53.8437C58.5071 53.792 58.5304 53.738 58.5487 53.6822L59.2338 51.601L59.5745 50.0484C59.5849 50.001 59.5919 49.9529 59.5953 49.9044L59.763 47.5275C59.7665 47.4768 59.7662 47.4258 59.7621 47.3751L59.601 45.4179C59.5938 45.3305 59.5752 45.2444 59.5455 45.1619L58.8775 43.3016L58.3429 42.219L57.8692 41.2596C57.8289 41.1779 57.7776 41.1021 57.7167 41.0343L56.0861 39.2181C56.0466 39.174 56.0032 39.1336 55.9565 39.0972L53.8333 37.4433C53.7519 37.3799 53.6611 37.3295 53.5643 37.2939L51.8804 36.6738C51.7942 36.6421 51.7041 36.6224 51.6125 36.6152L49.4343 36.4456H46.9259C46.8171 36.4456 46.7091 36.4633 46.6061 36.4981L44.0891 37.3477C44.0891 37.3477 42.4653 38.0745 41.5946 38.791C40.7919 39.4517 40.4398 39.9425 39.8129 40.7757C39.3568 41.3819 39.1514 41.7588 38.7438 42.3995C38.3883 42.9583 38.1215 43.2363 37.853 43.8428C37.4732 44.7006 37.4593 45.2592 37.3185 46.1883C37.2979 46.3239 37.2791 46.4733 37.262 46.6275C37.1819 47.3497 36.4089 47.7904 35.8065 47.3842C35.5794 47.231 35.3594 47.0687 35.1804 46.91C34.4362 46.2505 34.0873 45.7831 33.5768 44.9254C33.2957 44.4531 32.9532 43.6624 32.9532 43.6624C32.9532 43.6624 32.5153 42.9179 32.3296 42.3995C32.0175 41.5283 31.9253 40.9795 31.9732 40.054C32.0183 39.1836 32.1749 38.6926 32.5078 37.8889C32.8216 37.1312 33.1149 36.7603 33.5768 36.0847C34.3071 35.0165 34.8195 34.4893 35.7149 33.5588C36.5054 32.7374 36.9671 32.2889 37.853 31.5742C38.7134 30.88 39.2301 30.5306 40.1692 29.9504C41.0462 29.4085 41.5361 29.0851 42.4855 28.6874C43.36 28.3211 43.8894 28.2204 44.8017 27.9657C45.9732 27.6387 46.6224 27.3751 47.8307 27.244C48.8685 27.1315 49.4608 27.1921 50.5033 27.244C52.469 27.3419 53.5889 27.4586 55.4922 27.9657C56.5561 28.2493 58.1648 28.8678 58.1648 28.8678C58.1648 28.8678 59.4985 29.4707 60.3029 29.9504C61.3344 30.5655 61.8871 30.9672 62.7973 31.7546C63.6203 32.4665 64.0396 32.9186 64.7572 33.7392C65.3479 34.4148 65.6762 34.801 66.1826 35.5434C66.7319 36.3489 67.0107 36.8265 67.4298 37.7085C67.6596 38.192 67.7405 38.4851 67.9643 38.9715C68.1615 39.3999 68.3148 39.6196 68.4988 40.054C68.8983 40.9968 69.0334 41.497 69.2115 42.5799C69.3897 43.6628 69.3511 43.8974 69.3897 44.7449C69.4378 45.8007 69.3897 46.3944 69.3897 47.4513C69.3897 48.4377 69.4584 48.9932 69.3897 49.9772C69.3203 50.9711 69.2294 51.5266 69.0334 52.5031C68.6694 54.3155 68.3655 55.3307 67.608 57.0136C67.1819 57.9602 66.9101 58.48 66.3608 59.3591C65.8547 60.1689 65.5131 60.5847 64.9354 61.3437C64.3317 62.1369 63.9764 62.5689 63.3318 63.3284C62.7217 64.0473 62.3576 64.4309 61.7283 65.1326Z" fill="#339ABC"/>
<path d="M39.6348 68.0193C39.7092 68.6219 40.4346 68.8872 40.8802 68.4746L45.547 64.154C45.8497 63.8738 45.9492 63.4365 45.7977 63.0528L45.7307 62.8832C45.7055 62.8193 45.6737 62.7581 45.6359 62.7007L44.98 61.7045L43.0201 59.1786L39.2502 55.356L37.8531 53.9464L36.2495 52.503L34.1114 50.5184L33.2206 49.6163L32.1233 48.5L29.899 46.2526C29.8566 46.2098 29.8182 46.1633 29.7842 46.1135L28.3729 44.0494C28.2802 43.9137 28.2223 43.7574 28.2044 43.5941L28.0644 42.3182C28.0572 42.2522 28.0565 42.1857 28.0625 42.1197L28.1226 41.4496C28.1751 40.865 27.6235 40.4103 27.0597 40.5735V40.5735C27.0097 40.5879 26.9611 40.607 26.9147 40.6306L26.3527 40.9151C26.2989 40.9423 26.2476 40.9744 26.1996 41.0109L25.6522 41.4266C25.5903 41.4736 25.5342 41.5276 25.4848 41.5876L24.7604 42.4678C24.6993 42.5421 24.6492 42.6249 24.6117 42.7135L24.1337 43.8428L23.8149 44.9726C23.79 45.0609 23.7774 45.1523 23.7774 45.2441V46.3687V47.6737C23.7774 47.7655 23.79 47.8569 23.8149 47.9453L24.1337 49.075L24.6264 50.2391C24.6542 50.3048 24.689 50.3674 24.7301 50.4257L25.5591 51.6009L26.2718 52.6835L27.3408 53.9464L28.5881 55.3898L29.8353 56.6527L31.0825 57.9157L32.5079 59.1786L33.1639 59.6768C33.2016 59.7055 33.2373 59.7368 33.2706 59.7706L33.7551 60.2612L34.2896 60.8024L34.8241 61.3437L35.5368 62.0654L36.6059 63.1479L37.1404 63.6892L37.9619 64.521C38.008 64.5677 38.0495 64.6189 38.0856 64.6738L38.3876 65.1325L38.9221 66.0347L39.4257 67.2246C39.4463 67.2732 39.463 67.3234 39.4757 67.3746L39.6348 68.0193V68.0193Z" fill="#339ABC"/>
<path d="M39.9912 34.6413C39.5636 34.93 37.3186 36.9868 36.6059 38.0693C35.8932 39.1519 36.2495 38.6106 36.0713 38.9714C35.8932 39.3323 35.8217 39.5775 35.715 39.8735C35.6167 40.1465 35.6064 40.3134 35.5368 40.5952C35.4672 40.8771 35.4002 41.0295 35.3587 41.3169C35.2982 41.7352 35.3587 41.9767 35.3587 42.3994C35.3587 42.8222 35.3245 43.0606 35.3587 43.482C35.3933 43.9091 35.5368 44.5645 35.5368 44.5645L35.715 45.2862L35.8932 45.8275L36.0713 46.3687L36.6059 47.4513L37.1404 44.9254C37.1404 44.9254 37.6304 43.6891 38.0313 42.9407C38.907 41.3055 39.9775 40.0369 40.882 39.3323C41.7866 38.6277 42.6638 38.0693 43.5546 37.5281C44.4455 36.9868 46.0491 36.626 48.009 36.4455C49.9689 36.2651 50.5034 36.4455 50.8598 36.4455C51.2161 36.4455 52.0149 36.5332 52.9979 36.9868C54.2642 37.5712 54.9867 37.8548 56.0268 38.791C56.7623 39.453 57.1543 39.8509 57.8085 40.5952C58.401 41.2692 58.8033 41.6095 59.2339 42.3994C59.6275 43.1215 59.7733 43.5783 59.9466 44.3841C60.0807 45.0075 60.0851 45.3711 60.1248 46.0079C60.217 47.4863 60.6593 50.338 60.6593 50.338L60.1248 53.9464L58.8776 57.9157C58.8776 57.9157 57.9451 59.3676 57.274 60.622C56.4717 62.1217 55.7965 62.6904 54.7796 64.05C53.9982 65.0948 53.445 65.7289 52.6415 66.7564C50.1369 69.9592 48.2609 71.3393 45.3364 74.1537C44.3015 75.1496 43.7024 75.6876 42.6638 76.6796C40.9096 78.3549 39.5905 79.0081 38.2094 81.0097C37.5668 81.941 37.1452 82.4599 36.784 83.5356C36.5776 84.1506 36.5605 84.5238 36.4277 85.1594C36.2808 85.8623 36.1328 86.2477 36.0713 86.9636L36.0663 87.0219C36.021 87.5482 35.9933 87.8688 36.0713 88.407C36.1449 88.9145 36.2962 89.1746 36.4277 89.6699C36.5767 90.231 36.5789 90.5707 36.784 91.1133C36.9509 91.5547 37.3186 92.1958 37.3186 92.1958C37.3186 92.1958 38.8926 87.9014 40.5257 85.5202C41.5116 84.0827 42.2254 83.3978 43.3765 82.0922C47.0487 77.9269 49.787 76.2727 53.7105 72.3494C54.5508 71.5093 55.0137 71.0299 55.8486 70.1844C56.8228 69.198 57.4193 68.6934 58.3431 67.6585C59.3049 66.5808 60.6593 64.7717 60.6593 64.7717L62.0847 62.4262C62.0847 62.4262 62.9116 61.03 63.3319 60.0808C63.9844 58.6072 64.1992 57.7059 64.571 56.1457L64.5791 56.1115C64.9924 54.3774 65.1029 53.3745 65.2918 51.601C65.3817 50.7574 65.4647 50.2843 65.47 49.4359C65.4758 48.5172 65.2918 46.7296 65.2918 46.7296C65.1137 45.8275 64.5791 43.6624 64.5791 43.6624C64.5791 43.6624 62.8862 39.6958 62.7974 39.5127C62.6562 39.2213 61.7779 37.6243 60.6593 36.2651C59.5935 34.97 58.2894 33.9073 57.9867 33.7392C57.684 33.5711 56.9177 33.0175 55.6705 32.4763C54.8677 32.1279 53.685 31.7288 52.9979 31.5742L51.9288 31.3937H50.8598H48.7217L46.9399 31.5742L45.1582 31.935C42.4856 33.0175 40.4188 34.3526 39.9912 34.6413Z" fill="url(#paint0_linear_1_2)"/>
<g filter="url(#filter1_d_1_2)">
<path d="M16.6504 56.8332L24.3119 64.7717L28.9444 69.2823L32.3297 72.8907L33.3987 73.9732L30.9043 76.6796L26.4499 72.5299L21.9956 68.0193L17.5413 63.5088L13.4433 58.9982L12.0179 57.2949L10.9488 55.5702L10.058 53.766L9.34527 51.7814L8.98892 49.6163V47.8121L9.16709 46.0079L9.34527 44.2037L9.87979 42.3994L10.2361 41.3169L10.7707 40.4148L11.3052 39.5127L12.0179 38.4302L13.2651 36.9868L15.0468 35.363L16.6504 34.2805L18.254 33.3784L20.2139 32.6567L21.9956 32.1154L24.3119 31.935L26.8063 32.1154L30.1916 32.8371L29.1225 34.4609L28.588 36.2651L26.8063 36.0847H25.2027H23.2428L21.8174 36.4455L20.9266 36.8064L20.2139 37.1672L19.1448 37.7085L18.254 38.2497L17.3631 38.9714L16.1159 40.4148L14.8687 42.5799L13.9778 44.7449L13.6214 46.0079V47.4512V50.1576L13.7996 51.0597L13.9778 51.9618L14.6905 53.766L16.6504 56.8332Z" fill="url(#paint1_linear_1_2)"/>
</g>
<g filter="url(#filter2_d_1_2)">
<path d="M26.9844 47.2709C27.7565 48.5338 29.6926 50.4102 29.8352 50.6989C30.0134 51.0597 33.9332 55.5703 36.2494 57.1941C37.4373 58.7577 39.8129 61.3438 39.9911 61.7046C40.1065 61.9383 40.4206 63.5976 40.5256 65.313C40.5636 65.9345 40.4301 66.6181 40.3143 67.2384L40.1693 68.5606L39.6347 66.3956L38.7439 64.5913L35.8931 61.7046C34.9428 60.9228 33.2917 59.2869 32.8641 58.9983C32.4365 58.7096 29.36 55.6304 28.0534 54.1269L26.0935 51.7814L25.2027 50.338L24.3118 48.5338L24.1336 47.0904V45.6471L24.49 44.2037L25.2027 42.9407L26.6281 41.6778V44.5645V46.0079L26.9844 47.2709Z" fill="url(#paint2_linear_1_2)"/>
</g>
<path d="M54.9577 73.4316V72.1687V71.8078L56.0267 70.7253V77.4009V79.2051V80.8289V81.9114V82.6331V83.7157L56.5612 84.4373L55.4922 86.422L54.4232 84.4373L54.9577 83.7157V82.994V81.9114V80.4681V79.566V78.1226V76.3184V74.875V73.4316Z" fill="#999999"/>
<path d="M52.8374 42.7239L54.0668 39.6928L55.2962 42.7239L58.1648 44.0229L55.2962 45.3219L54.0668 48.353L52.8374 45.3219L49.9688 44.0229L52.8374 42.7239Z" fill="#999999"/>
<path d="M70.5799 19.4848C70.3872 19.9572 70.2811 20.4722 70.2811 21.0112C70.2812 23.3027 72.1951 25.1604 74.5564 25.1606C75.5124 25.1606 76.3951 24.8556 77.1072 24.3412C76.4805 25.8775 74.9377 26.9652 73.1316 26.9653C70.77 26.9653 68.8553 25.1067 68.8553 22.8149C68.8553 21.4512 69.5333 20.2412 70.5799 19.4848Z" fill="#999999"/>
<path d="M53.8887 2.88675L54.9577 3.60843V15.7869V27.9653L55.8486 28.1458L56.5613 28.3262V27.6045V26.8828V26.1611V3.60843L57.4522 2.88675L55.6704 0L53.8887 2.88675Z" fill="#999999"/>
<path d="M75.6259 42.5795H72.5969H72.2406H71.7061H70.9934H69.2116V43.3012V44.0229H69.568H70.1025H70.8152H71.7061H72.0624H72.5969H74.5568H75.4477H76.1604H77.2295H77.764H78.6548H79.3675H80.2584H81.3274L82.5747 43.8424L83.4655 43.662L83.8219 43.4816L84.0001 43.3012V43.1208L83.6437 42.9403L83.1092 42.7599L81.862 42.5795H80.4366H79.0112H77.4076H75.6259Z" fill="#999999"/>
<path d="M56.027 25.259C65.8671 25.2592 73.8443 33.3368 73.8444 43.301C73.8444 48.8732 71.3484 53.8538 67.4284 57.1633C68.0828 55.8181 68.6017 54.3895 68.9635 52.8958C70.9111 50.2075 72.0622 46.8906 72.0622 43.301C72.0621 34.3333 64.883 27.064 56.027 27.0637C55.6678 27.0637 55.311 27.0763 54.9577 27.0999V25.2922C55.3114 25.271 55.6681 25.259 56.027 25.259Z" fill="#999999"/>
</g>
<defs>
<filter id="filter0_d_1_2" x="0" y="0" width="88.0001" height="100.716" filterUnits="userSpaceOnUse" color-interpolation-filters="sRGB">
<feFlood flood-opacity="0" result="BackgroundImageFix"/>
<feColorMatrix in="SourceAlpha" type="matrix" values="0 0 0 0 0 0 0 0 0 0 0 0 0 0 0 0 0 0 127 0" result="hardAlpha"/>
<feOffset dy="4"/>
<feGaussianBlur stdDeviation="2"/>
<feComposite in2="hardAlpha" operator="out"/>
<feColorMatrix type="matrix" values="0 0 0 0 0 0 0 0 0 0 0 0 0 0 0 0 0 0 0.25 0"/>
<feBlend mode="normal" in2="BackgroundImageFix" result="effect1_dropShadow_1_2"/>
<feBlend mode="normal" in="SourceGraphic" in2="effect1_dropShadow_1_2" result="shape"/>
</filter>
<filter id="filter1_d_1_2" x="4.98892" y="31.935" width="32.4098" height="52.7446" filterUnits="userSpaceOnUse" color-interpolation-filters="sRGB">
<feFlood flood-opacity="0" result="BackgroundImageFix"/>
<feColorMatrix in="SourceAlpha" type="matrix" values="0 0 0 0 0 0 0 0 0 0 0 0 0 0 0 0 0 0 127 0" result="hardAlpha"/>
<feOffset dy="4"/>
<feGaussianBlur stdDeviation="2"/>
<feComposite in2="hardAlpha" operator="out"/>
<feColorMatrix type="matrix" values="0 0 0 0 0 0 0 0 0 0 0 0 0 0 0 0 0 0 0.25 0"/>
<feBlend mode="normal" in2="BackgroundImageFix" result="effect1_dropShadow_1_2"/>
<feBlend mode="normal" in="SourceGraphic" in2="effect1_dropShadow_1_2" result="shape"/>
</filter>
<filter id="filter2_d_1_2" x="20.1336" y="41.6778" width="24.3986" height="34.8828" filterUnits="userSpaceOnUse" color-interpolation-filters="sRGB">
<feFlood flood-opacity="0" result="BackgroundImageFix"/>
<feColorMatrix in="SourceAlpha" type="matrix" values="0 0 0 0 0 0 0 0 0 0 0 0 0 0 0 0 0 0 127 0" result="hardAlpha"/>
<feOffset dy="4"/>
<feGaussianBlur stdDeviation="2"/>
<feComposite in2="hardAlpha" operator="out"/>
<feColorMatrix type="matrix" values="0 0 0 0 0 0 0 0 0 0 0 0 0 0 0 0 0 0 0.25 0"/>
<feBlend mode="normal" in2="BackgroundImageFix" result="effect1_dropShadow_1_2"/>
<feBlend mode="normal" in="SourceGraphic" in2="effect1_dropShadow_1_2" result="shape"/>
</filter>
<linearGradient id="paint0_linear_1_2" x1="50.401" y1="31.3937" x2="50.401" y2="92.1958" gradientUnits="userSpaceOnUse">
<stop stop-color="#40BDE0"/>
<stop offset="1" stop-color="#021533"/>
</linearGradient>
<linearGradient id="paint1_linear_1_2" x1="21.1938" y1="31.935" x2="21.1938" y2="76.6796" gradientUnits="userSpaceOnUse">
<stop stop-color="#40BDE0"/>
<stop offset="1" stop-color="#021533"/>
</linearGradient>
<linearGradient id="paint2_linear_1_2" x1="32.3329" y1="41.6778" x2="32.3329" y2="68.5606" gradientUnits="userSpaceOnUse">
<stop stop-color="#40BDE0"/>
<stop offset="1" stop-color="#021533"/>
</linearGradient>
</defs>
</svg>
